<svg width="80" height="80" viewBox="0 0 80 80" fill="none" xmlns="http://www.w3.org/2000/svg">
<path d="M40 66.6654C40.6693 66.6644 41.211 66.1212 41.21 65.4519C41.2091 64.7841 40.6679 64.2429 40 64.2419C39.3308 64.2429 38.7891 64.7862 38.79 65.4554C38.7911 66.1232 39.3322 66.6644 40 66.6654Z" fill="#F39200"/>
<path d="M75.1508 0H4.84907C2.17256 0.00281244 0.00354486 2.17183 0.000732422 4.84818V21.8128C0.0255756 22.4825 0.588532 23.0051 1.25821 22.9803C1.89304 22.9567 2.40224 22.4476 2.42568 21.8128V4.84818C2.42662 3.50993 3.51066 2.4251 4.84891 2.42323H75.1507C76.4889 2.4251 77.573 3.50993 77.5739 4.84818V21.8128C77.5987 22.4825 78.1617 23.0051 78.8312 22.9804C79.466 22.9569 79.9753 22.4476 79.9989 21.8128V4.84818C79.9964 2.17183 77.8273 0.00281244 75.1508 0V0Z" fill="#F39200"/>
<path d="M39.9999 9.01807C17.9193 9.04291 0.0255756 26.9366 0.000732422 49.0172V66.6651C0.00354486 69.3416 2.17256 71.5106 4.84891 71.5133H29.6967V77.5749H21.8185C21.1489 77.5997 20.6262 78.1627 20.6509 78.8322C20.6745 79.467 21.1837 79.9762 21.8185 79.9998H58.1828C58.8524 79.975 59.3751 79.412 59.3504 78.7424C59.3268 78.1075 58.8176 77.5983 58.1828 77.5747H50.3029V71.5116H75.1507C77.8266 71.5088 79.9953 69.3408 79.9989 66.665V49.0172C79.9743 26.9366 62.0805 9.04291 39.9999 9.01807ZM47.8797 77.5733H32.1218V71.5117H47.8797V77.5733ZM77.5741 66.6653C77.5731 68.0035 76.4891 69.0883 75.1508 69.0902H4.84907C3.51081 69.0883 2.42677 68.0035 2.42584 66.6653V61.8171H77.5742L77.5741 66.6653ZM35 44.0223C32.2933 46.8404 32.3835 51.3189 35.2015 54.0257C37.9551 56.6705 42.3103 56.6535 45.043 53.9871C47.7711 50.2859 50.2354 46.3976 52.4179 42.3506C55.4691 48.0132 54.3038 55.0229 49.5847 59.3936H30.4385C18.5338 47.9805 31.9185 29.1292 46.5882 36.549C42.5556 38.7665 38.6833 41.2636 35 44.0223ZM53.688 35.2342C49.6648 42.3774 44.6599 50.9322 43.3232 52.2806C41.5442 54.134 38.5996 54.1941 36.7463 52.4153C34.8929 50.6362 34.8328 47.6916 36.6117 45.8384C36.6471 45.8013 36.6832 45.7649 36.7199 45.7292C38.0549 44.3809 46.5697 39.311 53.6846 35.2344L53.688 35.2342ZM52.8546 59.4004C57.3703 53.8137 57.7525 45.9473 53.7996 39.9491C55.8295 36.3975 57.5012 33.3793 57.9162 32.6276C58.2407 32.0434 58.0304 31.3068 57.4462 30.9821C57.0773 30.7771 56.6283 30.7792 56.2612 30.9876C55.5145 31.4076 52.5096 33.1026 48.9747 35.1542C33.1367 25.1994 15.5671 44.6373 27.1669 59.3937H2.42568V50.2389L7.97556 50.2789C8.64476 50.2858 9.19272 49.7489 9.19975 49.0797C9.20663 48.4105 8.66976 47.8626 8.00056 47.8555L2.4624 47.8122C2.63802 42.0375 4.15221 36.3825 6.88558 31.2926L11.6938 34.0675C12.268 34.4111 13.012 34.2241 13.3556 33.6497C13.6992 33.0754 13.5122 32.3315 12.9378 31.9879C12.9272 31.9815 12.9162 31.9752 12.9055 31.9691L8.09728 29.1994C11.151 24.3026 15.284 20.1691 20.1803 17.1146L22.9635 21.9295C23.2976 22.5093 24.0387 22.7086 24.6185 22.3745C25.1983 22.0404 25.3975 21.2994 25.0635 20.7195L22.2768 15.8946C27.3642 13.1627 33.0163 11.6486 38.7882 11.4715V17.0513C38.813 17.721 39.376 18.2437 40.0457 18.2188C40.6805 18.1952 41.1897 17.6862 41.2131 17.0513V11.4715C46.9844 11.6485 52.636 13.1625 57.7228 15.8946L54.9378 20.7178C54.6033 21.2976 54.8021 22.039 55.382 22.3736C55.9619 22.7081 56.7033 22.5093 57.0378 21.9294L59.8194 17.1145C64.7157 20.1689 68.8488 24.3024 71.9025 29.1992L67.1026 31.9691C66.5181 32.2948 66.3081 33.0327 66.6337 33.6172C66.9593 34.2017 67.6972 34.4117 68.2818 34.0861C68.2927 34.08 68.3035 34.0738 68.3141 34.0674L73.1223 31.2924C75.8538 36.38 77.3675 42.032 77.5439 47.8038H72.014C71.3444 47.8286 70.8217 48.3916 70.8465 49.0613C70.8701 49.6961 71.3793 50.2053 72.014 50.2287H77.5739V59.3953L52.8546 59.4004Z" fill="#F39200"/>
</svg>
