<svg width="76" height="80" viewBox="0 0 76 80" fill="none" xmlns="http://www.w3.org/2000/svg">
<path d="M38 0C17.0319 0 0.0339355 16.998 0.0339355 37.9661V52.8814C0.0339355 53.6302 0.641054 54.2373 1.38987 54.2373H5.52682C5.85936 56.5663 7.85072 58.2985 10.2034 58.3051H11.017C11.7621 61.9746 15.3407 64.3451 19.0102 63.6C22.1724 62.9578 24.4439 60.1759 24.4407 56.9492V37.9661C24.4444 34.2219 21.4122 31.1834 17.6678 31.1797C14.4411 31.1764 11.6592 33.448 11.017 36.6102H10.2034C7.85072 36.6168 5.85936 38.349 5.52682 40.678H2.7458V37.9661C2.74309 28.3802 6.65614 19.209 13.5783 12.5776C16.1604 14.4675 19.6511 14.532 22.3011 12.739C26.9521 9.66068 32.4233 8.05644 38 8.13559C43.5777 8.05847 49.0489 9.66508 53.699 12.7458C56.3548 14.529 59.8404 14.4685 62.4326 12.5939C69.3463 19.2234 73.255 28.3875 73.2543 37.9661V40.678H70.4733C70.1407 38.349 68.1494 36.6168 65.7966 36.6102H64.9831C64.238 32.9407 60.6594 30.5702 56.9899 31.3153C53.8275 31.9573 51.5561 34.7393 51.5594 37.9661V56.9492C51.5556 60.6934 54.5878 63.7319 58.3322 63.7356C61.559 63.7388 64.3411 61.4673 64.9831 58.3051H65.7966C68.1494 58.2985 70.1407 56.5663 70.4733 54.2373H73.1851C72.4653 65.6578 63.0024 74.5575 51.5594 74.5763H44.5302C43.9577 72.9568 42.4295 71.8715 40.7119 71.8644H35.2882C33.0416 71.8644 31.2204 73.6856 31.2204 75.9322C31.2204 78.1788 33.0416 80 35.2882 80H40.7119C42.4295 79.9929 43.9577 78.9076 44.5302 77.2881H51.5594C65.0324 77.2724 75.9504 66.3544 75.9661 52.8814V37.9661C75.9661 16.998 58.9682 0 38 0ZM13.5933 37.9661C13.5933 35.7195 15.4144 33.8983 17.6611 33.8983C19.9077 33.8983 21.7289 35.7195 21.7289 37.9661V56.9492C21.7289 59.1958 19.9077 61.017 17.6611 61.017C15.4144 61.017 13.5933 59.1958 13.5933 56.9492V37.9661ZM8.16953 41.3559C8.16953 40.2327 9.08021 39.322 10.2034 39.322H10.8814V55.5932H10.2034C9.08021 55.5932 8.16953 54.6825 8.16953 53.5593V41.3559ZM5.45766 43.3898V51.5254H2.7458V43.3898H5.45766ZM55.2177 10.4949C50.1187 7.11237 44.1185 5.34508 38 5.42373C31.8811 5.34339 25.8799 7.10915 20.7797 10.4908C19.2509 11.5151 17.2778 11.5988 15.6678 10.7078C28.6453 0.0466098 47.3494 0.0466098 60.3268 10.7078L60.3295 10.7119C58.7195 11.6029 56.7465 11.5192 55.2177 10.4949ZM62.4068 56.9492C62.4068 59.1958 60.5856 61.017 58.339 61.017C56.0924 61.017 54.2712 59.1958 54.2712 56.9492V37.9661C54.2712 35.7195 56.0924 33.8983 58.339 33.8983C60.5856 33.8983 62.4068 35.7195 62.4068 37.9661V56.9492ZM67.8306 53.5593C67.8306 54.6825 66.9199 55.5932 65.7966 55.5932H65.1187V39.322H65.7966C66.9199 39.322 67.8306 40.2327 67.8306 41.3559V53.5593ZM40.7119 77.2881H35.2882C34.5394 77.2881 33.9322 76.681 33.9322 75.9322C33.9322 75.1834 34.5394 74.5763 35.2882 74.5763H40.7119C41.4607 74.5763 42.0678 75.1834 42.0678 75.9322C42.0678 76.681 41.4607 77.2881 40.7119 77.2881ZM73.2543 51.5254H70.5424V43.3898H73.2543V51.5254Z" fill="#F39200"/>
</svg>
