<svg width="506" height="506" viewBox="0 0 506 506" fill="none" xmlns="http://www.w3.org/2000/svg">
<path d="M239.583 5.55765L248.528 1.85255L248.719 2.31449L253 0.541198L257.281 2.3145L257.472 1.85256L266.417 5.55765L266.226 6.0196L275.171 9.72469L275.362 9.26275L284.307 12.9679L284.116 13.4298L293.061 17.1349L293.252 16.673L302.197 20.378L302.006 20.84L310.951 24.5451L311.142 24.0831L320.087 27.7882L319.895 28.2502L328.84 31.9553L329.032 31.4933L337.977 35.1984L337.785 35.6604L346.73 39.3655L346.921 38.9035L355.866 42.6086L355.675 43.0706L364.62 46.7757L364.811 46.3137L373.756 50.0188L373.565 50.4808L382.51 54.1859L382.701 53.7239L391.646 57.429L391.455 57.891L400.4 61.5961L400.591 61.1341L409.536 64.8392L409.344 65.3012L418.289 69.0063L418.481 68.5443L427.426 72.2494L427.234 72.7114L431.515 74.4847L433.289 78.7658L433.751 78.5745L437.456 87.5194L436.994 87.7107L440.699 96.6556L441.161 96.4643L444.866 105.409L444.404 105.6L448.109 114.545L448.571 114.354L452.276 123.299L451.814 123.49L455.519 132.435L455.981 132.244L459.686 141.189L459.224 141.38L462.929 150.325L463.391 150.134L467.096 159.079L466.635 159.27L470.34 168.215L470.802 168.023L474.507 176.968L474.045 177.16L477.75 186.105L478.212 185.913L481.917 194.858L481.455 195.049L485.16 203.994L485.622 203.803L489.327 212.748L488.865 212.939L492.57 221.884L493.032 221.693L496.737 230.638L496.275 230.829L499.98 239.774L500.442 239.583L504.147 248.528L503.686 248.719L505.459 253L503.685 257.281L504.147 257.472L500.442 266.417L499.98 266.226L496.275 275.171L496.737 275.362L493.032 284.307L492.57 284.116L488.865 293.061L489.327 293.252L485.622 302.197L485.16 302.006L481.455 310.951L481.917 311.142L478.212 320.087L477.75 319.895L474.045 328.84L474.507 329.032L470.802 337.977L470.34 337.785L466.635 346.73L467.096 346.921L463.391 355.866L462.929 355.675L459.224 364.62L459.686 364.811L455.981 373.756L455.519 373.565L451.814 382.51L452.276 382.701L448.571 391.646L448.109 391.455L444.404 400.4L444.866 400.591L441.161 409.536L440.699 409.344L436.994 418.289L437.456 418.481L433.751 427.426L433.289 427.234L431.515 431.515L427.234 433.289L427.426 433.751L418.481 437.456L418.289 436.994L409.344 440.699L409.536 441.161L400.591 444.866L400.4 444.404L391.455 448.109L391.646 448.571L382.701 452.276L382.51 451.814L373.565 455.519L373.756 455.981L364.811 459.686L364.62 459.224L355.675 462.929L355.866 463.391L346.921 467.096L346.73 466.635L337.785 470.34L337.977 470.802L329.032 474.507L328.84 474.045L319.895 477.75L320.087 478.212L311.142 481.917L310.951 481.455L302.006 485.16L302.197 485.622L293.252 489.327L293.061 488.865L284.116 492.57L284.307 493.032L275.362 496.737L275.171 496.275L266.226 499.98L266.417 500.442L257.472 504.147L257.281 503.686L253 505.459L248.719 503.685L248.528 504.147L239.583 500.442L239.774 499.98L230.829 496.275L230.638 496.737L221.693 493.032L221.884 492.57L212.939 488.865L212.748 489.327L203.803 485.622L203.994 485.16L195.049 481.455L194.858 481.917L185.913 478.212L186.105 477.75L177.16 474.045L176.968 474.507L168.023 470.802L168.215 470.34L159.27 466.635L159.079 467.096L150.134 463.391L150.325 462.929L141.38 459.224L141.189 459.686L132.244 455.981L132.435 455.519L123.49 451.814L123.299 452.276L114.354 448.571L114.545 448.109L105.6 444.404L105.409 444.866L96.4642 441.161L96.6556 440.699L87.7107 436.994L87.5193 437.456L78.5744 433.751L78.7658 433.289L74.4847 431.515L72.7114 427.234L72.2494 427.426L68.5443 418.481L69.0063 418.289L65.3012 409.344L64.8392 409.536L61.1341 400.591L61.5961 400.4L57.891 391.455L57.429 391.646L53.7239 382.701L54.1859 382.51L50.4808 373.565L50.0188 373.756L46.3137 364.811L46.7757 364.62L43.0706 355.675L42.6086 355.866L38.9035 346.921L39.3655 346.73L35.6604 337.785L35.1984 337.977L31.4933 329.032L31.9553 328.84L28.2502 319.895L27.7882 320.087L24.0831 311.142L24.5451 310.951L20.84 302.006L20.378 302.197L16.6729 293.252L17.1349 293.061L13.4298 284.116L12.9679 284.307L9.26275 275.362L9.72469 275.171L6.01959 266.226L5.55765 266.417L1.85255 257.472L2.31449 257.281L0.541198 253L2.3145 248.719L1.85256 248.528L5.55766 239.583L6.0196 239.774L9.72469 230.829L9.26275 230.638L12.9679 221.693L13.4298 221.884L17.1349 212.939L16.673 212.748L20.378 203.803L20.84 203.994L24.5451 195.049L24.0831 194.858L27.7882 185.913L28.2502 186.105L31.9553 177.16L31.4933 176.968L35.1984 168.023L35.6604 168.215L39.3655 159.27L38.9035 159.079L42.6086 150.134L43.0706 150.325L46.7757 141.38L46.3137 141.189L50.0188 132.244L50.4808 132.435L54.1859 123.49L53.7239 123.299L57.429 114.354L57.891 114.545L61.5961 105.6L61.1341 105.409L64.8392 96.4642L65.3012 96.6556L69.0063 87.7107L68.5443 87.5193L72.2494 78.5744L72.7114 78.7658L74.4847 74.4847L78.7658 72.7114L78.5745 72.2494L87.5194 68.5443L87.7107 69.0063L96.6556 65.3012L96.4642 64.8392L105.409 61.1341L105.6 61.5961L114.545 57.891L114.354 57.429L123.299 53.7239L123.49 54.1859L132.435 50.4808L132.244 50.0188L141.189 46.3137L141.38 46.7757L150.325 43.0706L150.134 42.6086L159.079 38.9035L159.27 39.3655L168.215 35.6604L168.023 35.1984L176.968 31.4933L177.16 31.9553L186.105 28.2502L185.913 27.7882L194.858 24.0831L195.049 24.5451L203.994 20.84L203.803 20.378L212.748 16.6729L212.939 17.1349L221.884 13.4298L221.693 12.9678L230.638 9.26275L230.829 9.72469L239.774 6.01959L239.583 5.55765Z" stroke="#B5B5DB" stroke-dasharray="10 10"/>
</svg>
