<svg width="180" height="180" viewBox="0 0 180 180" fill="none" xmlns="http://www.w3.org/2000/svg">
<path d="M76.25 8.51592C84.7585 3.60351 95.2415 3.60351 103.75 8.51592L153.692 37.3501C162.201 42.2625 167.442 51.341 167.442 61.1658V118.834C167.442 128.659 162.201 137.738 153.692 142.65L103.75 171.484C95.2415 176.396 84.7585 176.396 76.25 171.484L26.3077 142.65C17.7992 137.738 12.5577 128.659 12.5577 118.834V61.1658C12.5577 51.341 17.7992 42.2625 26.3077 37.3501L76.25 8.51592Z" fill="white" stroke="#1E1E26"/>
<path d="M78.5 20.3509C85.3068 16.4209 93.6932 16.4209 100.5 20.3509L144.751 45.8991C151.558 49.8291 155.751 57.0919 155.751 64.9517V116.048C155.751 123.908 151.558 131.171 144.751 135.101L100.5 160.649C93.6932 164.579 85.3068 164.579 78.5 160.649L34.2491 135.101C27.4422 131.171 23.2491 123.908 23.2491 116.048V64.9517C23.2491 57.0919 27.4422 49.8291 34.2491 45.8991L78.5 20.3509Z" fill="#1E1E26"/>
</svg>
